<svg xmlns:xlink="http://www.w3.org/1999/xlink" xmlns="http://www.w3.org/2000/svg" viewBox="0 0 28 28" width="28"  height="28" ><path data-test-selector="audio-wave-line" class="animated-audio-wave__line_1 animated-audio-wave__line_1_paused" d="M2,10L6,10A1,1,0,0,0,2,10V18A1,1,0,0,0,6,18V10Z" fill="#FFFFFF"></path><path data-test-selector="audio-wave-line" class="animated-audio-wave__line_2 animated-audio-wave__line_2_paused" d="M12,4L16,4A1,1,0,0,0,12,4V24A1,1,0,0,0,16,24V4Z" fill="#FFFFFF"></path><path data-test-selector="audio-wave-line" class="animated-audio-wave__line_3 animated-audio-wave__line_3_paused" d="M22,10L26,10A1,1,0,0,0,22,10V18A1,1,0,0,0,26,18V10Z" fill="#FFFFFF"></path></svg>